<svg xmlns="http://www.w3.org/2000/svg" xmlns:xlink="http://www.w3.org/1999/xlink" xmlns:lucid="lucid" width="2024.5" height="1441"><g transform="translate(5081.5 -58.5)" lucid:page-tab-id="0_0"><path d="M-5500 0h2500v1500h-2500z" fill="#fff"/><path d="M-5080 72a12 12 0 0 1 12-12h336a12 12 0 0 1 12 12v144a12 12 0 0 1-12 12h-336a12 12 0 0 1-12-12z" fill="#fff"/><path d="M-5080 102h360v43h-360z" fill="#fff"/><path d="M-5080 144h360v43h-360z" fill="#fff"/><path d="M-5080 186h360v30a12 12 0 0 1-12 12h-336a12 12 0 0 1-12-12z" fill="#fff"/><path d="M-5078.5 102h357-357zM-5080 72a12 12 0 0 1 12-12h336a12 12 0 0 1 12 12v144a12 12 0 0 1-12 12h-336a12 12 0 0 1-12-12z" stroke="#000" stroke-width="3" fill="none"/><use xlink:href="#a" transform="matrix(1,0,0,1,-5070,60) translate(135.9375 30.700520833333336)"/><use xlink:href="#b" transform="matrix(1,0,0,1,-5075,104.5) translate(0 28.200520833333336)"/><use xlink:href="#c" transform="matrix(1,0,0,1,-5075,146.5) translate(0 28.200520833333336)"/><use xlink:href="#d" transform="matrix(1,0,0,1,-5075,188.5) translate(0 28.200520833333336)"/><path d="M-5080 1052a12 12 0 0 1 12-12h336a12 12 0 0 1 12 12v144a12 12 0 0 1-12 12h-336a12 12 0 0 1-12-12z" fill="#fff"/><path d="M-5080 1082h360v43h-360z" fill="#fff"/><path d="M-5080 1124h360v43h-360z" fill="#fff"/><path d="M-5080 1166h360v30a12 12 0 0 1-12 12h-336a12 12 0 0 1-12-12z" fill="#fff"/><path d="M-5078.5 1082h357-357zM-5080 1052a12 12 0 0 1 12-12h336a12 12 0 0 1 12 12v144a12 12 0 0 1-12 12h-336a12 12 0 0 1-12-12z" stroke="#000" stroke-width="3" fill="none"/><use xlink:href="#e" transform="matrix(1,0,0,1,-5070,1040) translate(98.7890625 30.700520833333336)"/><use xlink:href="#f" transform="matrix(1,0,0,1,-5075,1084.5) translate(0 28.200520833333336)"/><use xlink:href="#g" transform="matrix(1,0,0,1,-5075,1126.5) translate(0 28.200520833333336)"/><use xlink:href="#h" transform="matrix(1,0,0,1,-5075,1168.5) translate(0 28.200520833333336)"/><path d="M-4280 292a12 12 0 0 1 12-12h336a12 12 0 0 1 12 12v522a12 12 0 0 1-12 12h-336a12 12 0 0 1-12-12z" fill="#fff"/><path d="M-4280 322h360v43h-360z" fill="#fff"/><path d="M-4280 364h360v43h-360z" fill="#fff"/><path d="M-4280 406h360v43h-360z" fill="#fff"/><path d="M-4280 448h360v43h-360z" fill="#fff"/><path d="M-4280 490h360v43h-360z" fill="#fff"/><path d="M-4280 532h360v43h-360z" fill="#fff"/><path d="M-4280 574h360v43h-360z" fill="#fff"/><path d="M-4280 616h360v43h-360z" fill="#fff"/><path d="M-4280 658h360v43h-360z" fill="#fff"/><path d="M-4280 700h360v43h-360z" fill="#fff"/><path d="M-4280 742h360v43h-360z" fill="#fff"/><path d="M-4280 784h360v30a12 12 0 0 1-12 12h-336a12 12 0 0 1-12-12z" fill="#fff"/><path d="M-4278.5 322h357-357zM-4280 292a12 12 0 0 1 12-12h336a12 12 0 0 1 12 12v522a12 12 0 0 1-12 12h-336a12 12 0 0 1-12-12z" stroke="#000" stroke-width="3" fill="none"/><use xlink:href="#i" transform="matrix(1,0,0,1,-4270,280) translate(131.39322916666669 30.700520833333336)"/><use xlink:href="#j" transform="matrix(1,0,0,1,-4275,324.5) translate(0 28.200520833333336)"/><use xlink:href="#g" transform="matrix(1,0,0,1,-4275,366.5) translate(0 28.200520833333336)"/><use xlink:href="#k" transform="matrix(1,0,0,1,-4275,408.5) translate(0 28.200520833333336)"/><use xlink:href="#l" transform="matrix(1,0,0,1,-4275,450.5) translate(0 28.200520833333336)"/><use xlink:href="#m" transform="matrix(1,0,0,1,-4275,492.5) translate(0 28.200520833333336)"/><use xlink:href="#h" transform="matrix(1,0,0,1,-4275,534.5) translate(0 28.200520833333336)"/><use xlink:href="#n" transform="matrix(1,0,0,1,-4275,576.5) translate(0 28.200520833333336)"/><use xlink:href="#o" transform="matrix(1,0,0,1,-4275,618.5) translate(0 28.200520833333336)"/><use xlink:href="#p" transform="matrix(1,0,0,1,-4275,660.5) translate(0 28.200520833333336)"/><use xlink:href="#q" transform="matrix(1,0,0,1,-4275,702.5) translate(0 28.200520833333336)"/><use xlink:href="#r" transform="matrix(1,0,0,1,-4275,744.5) translate(0 28.200520833333336)"/><use xlink:href="#s" transform="matrix(1,0,0,1,-4275,786.5) translate(0 28.200520833333336)"/><path d="M-4280 1132a12 12 0 0 1 12-12h336a12 12 0 0 1 12 12v354a12 12 0 0 1-12 12h-336a12 12 0 0 1-12-12z" fill="#fff"/><path d="M-4280 1162h360v43h-360z" fill="#fff"/><path d="M-4280 1204h360v43h-360z" fill="#fff"/><path d="M-4280 1246h360v43h-360z" fill="#fff"/><path d="M-4280 1288h360v43h-360z" fill="#fff"/><path d="M-4280 1330h360v43h-360z" fill="#fff"/><path d="M-4280 1372h360v43h-360z" fill="#fff"/><path d="M-4280 1414h360v43h-360z" fill="#fff"/><path d="M-4280 1456h360v30a12 12 0 0 1-12 12h-336a12 12 0 0 1-12-12z" fill="#fff"/><path d="M-4278.5 1162h357-357zM-4280 1132a12 12 0 0 1 12-12h336a12 12 0 0 1 12 12v354a12 12 0 0 1-12 12h-336a12 12 0 0 1-12-12z" stroke="#000" stroke-width="3" fill="none"/><use xlink:href="#q" transform="matrix(1,0,0,1,-4270,1120) translate(142.97526041666666 30.700520833333336)"/><use xlink:href="#j" transform="matrix(1,0,0,1,-4275,1164.5) translate(0 28.200520833333336)"/><use xlink:href="#g" transform="matrix(1,0,0,1,-4275,1206.5) translate(0 28.200520833333336)"/><use xlink:href="#k" transform="matrix(1,0,0,1,-4275,1248.5) translate(0 28.200520833333336)"/><use xlink:href="#n" transform="matrix(1,0,0,1,-4275,1290.5) translate(0 28.200520833333336)"/><use xlink:href="#o" transform="matrix(1,0,0,1,-4275,1332.5) translate(0 28.200520833333336)"/><use xlink:href="#p" transform="matrix(1,0,0,1,-4275,1374.5) translate(0 28.200520833333336)"/><use xlink:href="#r" transform="matrix(1,0,0,1,-4275,1416.5) translate(0 28.200520833333336)"/><use xlink:href="#s" transform="matrix(1,0,0,1,-4275,1458.5) translate(0 28.200520833333336)"/><path d="M-3580 1174a12 12 0 0 1 12-12h336a12 12 0 0 1 12 12v270a12 12 0 0 1-12 12h-336a12 12 0 0 1-12-12z" fill="#fff"/><path d="M-3580 1204h360v43h-360z" fill="#fff"/><path d="M-3580 1246h360v43h-360z" fill="#fff"/><path d="M-3580 1288h360v43h-360z" fill="#fff"/><path d="M-3580 1330h360v43h-360z" fill="#fff"/><path d="M-3580 1372h360v43h-360z" fill="#fff"/><path d="M-3580 1414h360v30a12 12 0 0 1-12 12h-336a12 12 0 0 1-12-12z" fill="#fff"/><path d="M-3578.5 1204h357-357zM-3580 1174a12 12 0 0 1 12-12h336a12 12 0 0 1 12 12v270a12 12 0 0 1-12 12h-336a12 12 0 0 1-12-12z" stroke="#000" stroke-width="3" fill="none"/><use xlink:href="#t" transform="matrix(1,0,0,1,-3570,1162) translate(81.86848958333331 30.700520833333336)"/><use xlink:href="#u" transform="matrix(1,0,0,1,-3575,1206.5) translate(0 28.200520833333336)"/><use xlink:href="#r" transform="matrix(1,0,0,1,-3575,1248.5) translate(0 28.200520833333336)"/><use xlink:href="#v" transform="matrix(1,0,0,1,-3575,1290.5) translate(0 28.200520833333336)"/><use xlink:href="#w" transform="matrix(1,0,0,1,-3575,1290.5) translate(96.3671875 28.200520833333336)"/><use xlink:href="#q" transform="matrix(1,0,0,1,-3575,1332.5) translate(0 28.200520833333336)"/><use xlink:href="#h" transform="matrix(1,0,0,1,-3575,1374.5) translate(0 28.200520833333336)"/><use xlink:href="#p" transform="matrix(1,0,0,1,-3575,1416.5) translate(0 28.200520833333336)"/><path d="M-3460 334a12 12 0 0 1 12-12h336a12 12 0 0 1 12 12v270a12 12 0 0 1-12 12h-336a12 12 0 0 1-12-12z" fill="#fff"/><path d="M-3460 364h360v43h-360z" fill="#fff"/><path d="M-3460 406h360v43h-360z" fill="#fff"/><path d="M-3460 448h360v43h-360z" fill="#fff"/><path d="M-3460 490h360v43h-360z" fill="#fff"/><path d="M-3460 532h360v43h-360z" fill="#fff"/><path d="M-3460 574h360v30a12 12 0 0 1-12 12h-336a12 12 0 0 1-12-12z" fill="#fff"/><path d="M-3458.5 364h357-357zM-3460 334a12 12 0 0 1 12-12h336a12 12 0 0 1 12 12v270a12 12 0 0 1-12 12h-336a12 12 0 0 1-12-12z" stroke="#000" stroke-width="3" fill="none"/><use xlink:href="#x" transform="matrix(1,0,0,1,-3450,322) translate(70.28645833333333 30.700520833333336)"/><use xlink:href="#u" transform="matrix(1,0,0,1,-3455,366.5) translate(0 28.200520833333336)"/><use xlink:href="#r" transform="matrix(1,0,0,1,-3455,408.5) translate(0 28.200520833333336)"/><use xlink:href="#v" transform="matrix(1,0,0,1,-3455,450.5) translate(0 28.200520833333336)"/><use xlink:href="#y" transform="matrix(1,0,0,1,-3455,450.5) translate(96.3671875 28.200520833333336)"/><use xlink:href="#i" transform="matrix(1,0,0,1,-3455,492.5) translate(0 28.200520833333336)"/><use xlink:href="#h" transform="matrix(1,0,0,1,-3455,534.5) translate(0 28.200520833333336)"/><use xlink:href="#p" transform="matrix(1,0,0,1,-3455,576.5) translate(0 28.200520833333336)"/><path d="M-4283 1351h-611a6 6 0 0 1-6-6v-104.38" stroke="#3a414a" stroke-width="3" fill="none"/><path d="M-4281.5 1352.47h-1.54v-2.94h1.54z" stroke="#3a414a" stroke-width=".05" fill="#3a414a"/><path d="M-4900 1211.62l-14.85 14.85 14.85 14.85 14.85-14.85z" stroke="#3a414a" stroke-width="3" fill="#3a414a"/><path d="M-4283 553h-211a6 6 0 0 0-6 6v580.17a6 6 0 0 1-6 6h-181.38" stroke="#3a414a" stroke-width="3" fill="none"/><path d="M-4281.5 554.48h-1.54v-2.96h1.54z" stroke="#3a414a" stroke-width=".05" fill="#3a414a"/><path d="M-4716.38 1145.17l14.85 14.85 14.85-14.85-14.85-14.84z" stroke="#3a414a" stroke-width="3" fill="#3a414a"/><path d="M-3887.38 1351H-3583" stroke="#3a414a" stroke-width="3" fill="none"/><path d="M-3916.38 1351l14.85 14.85 14.85-14.85-14.85-14.85z" stroke="#3a414a" stroke-width="3" fill="#3a414a"/><path d="M-3581.5 1352.47h-1.54v-2.94h1.54z" stroke="#3a414a" stroke-width=".05" fill="#3a414a"/><path d="M-3887.38 469H-3463" stroke="#3a414a" stroke-width="3" fill="none"/><path d="M-3916.38 469l14.85 14.85 14.85-14.85-14.85-14.85z" stroke="#3a414a" stroke-width="3" fill="#3a414a"/><path d="M-3461.5 470.48h-1.54v-2.96h1.54z" stroke="#3a414a" stroke-width=".05" fill="#3a414a"/><path d="M-3067.38 469h2.88a6 6 0 0 1 6 6v176.5a6 6 0 0 1-6 6H-3274a6 6 0 0 1-6-6V619" stroke="#3a414a" stroke-width="3" fill="none"/><path d="M-3096.38 469l14.85 14.85 14.85-14.85-14.85-14.85z" stroke="#3a414a" stroke-width="3" fill="#3a414a"/><path d="M-3278.53 619.04h-2.94v-1.54h2.94z" stroke="#3a414a" stroke-width=".05" fill="#3a414a"/><path d="M-3187.38 1309h2.88a6 6 0 0 1 6 6v176.5a6 6 0 0 1-6 6H-3394a6 6 0 0 1-6-6V1459" stroke="#3a414a" stroke-width="3" fill="none"/><path d="M-3216.38 1309l14.85 14.85 14.85-14.85-14.85-14.85z" stroke="#3a414a" stroke-width="3" fill="#3a414a"/><path d="M-3398.53 1459.04h-2.94v-1.54h2.94z" stroke="#3a414a" stroke-width=".05" fill="#3a414a"/><path d="M-4940 234a6 6 0 0 1 6-6h228a6 6 0 0 1 6 6v48a6 6 0 0 1-6 6h-228a6 6 0 0 1-6-6z" fill="none"/><use xlink:href="#z" transform="matrix(1,0,0,1,-4940,228) translate(114.57682291666667 39.700520833333336)"/><path d="M-4920 986a6 6 0 0 1 6-6h228a6 6 0 0 1 6 6v48a6 6 0 0 1-6 6h-228a6 6 0 0 1-6-6z" fill="none"/><use xlink:href="#A" transform="matrix(1,0,0,1,-4920,980) translate(92.71484375 39.700520833333336)"/><use xlink:href="#B" transform="matrix(1,0,0,1,-4920,980) translate(111.06119791666667 39.700520833333336)"/><use xlink:href="#C" transform="matrix(1,0,0,1,-4920,980) translate(133.92578125 39.700520833333336)"/><path d="M-4920 234a6 6 0 0 1 6-6h228a6 6 0 0 1 6 6v48a6 6 0 0 1-6 6h-228a6 6 0 0 1-6-6z" fill="none"/><use xlink:href="#A" transform="matrix(1,0,0,1,-4920,228) translate(92.71484375 39.700520833333336)"/><use xlink:href="#B" transform="matrix(1,0,0,1,-4920,228) translate(111.06119791666667 39.700520833333336)"/><use xlink:href="#C" transform="matrix(1,0,0,1,-4920,228) translate(133.92578125 39.700520833333336)"/><path d="M-4940 986a6 6 0 0 1 6-6h228a6 6 0 0 1 6 6v48a6 6 0 0 1-6 6h-228a6 6 0 0 1-6-6z" fill="none"/><use xlink:href="#z" transform="matrix(1,0,0,1,-4940,980) translate(114.57682291666667 39.700520833333336)"/><path d="M-4904.24 584.24a6 6 0 0 1 8.48 0l71.52 71.52a6 6 0 0 1 0 8.48l-71.52 71.52a6 6 0 0 1-8.48 0l-71.52-71.52a6 6 0 0 1 0-8.48z" stroke="#000" stroke-width="3" fill="#fff"/><use xlink:href="#D" transform="matrix(1,0,0,1,-4975,585) translate(22.550572916666663 73.84333333333333)"/><use xlink:href="#E" transform="matrix(1,0,0,1,-4975,585) translate(61.37869791666666 112.56208333333333)"/><path d="M-4900 740.52V1037" stroke="#3a414a" stroke-width="3" fill="none"/><path d="M-4901.17 738.93l1.17.1 1.17-.1.3-.07v1.7h-2.95v-1.7zM-4898.52 1038.5h-2.95v-1.54h2.95z" stroke="#3a414a" stroke-width=".05" fill="#3a414a"/><path d="M-4900 579.48V231" stroke="#3a414a" stroke-width="3" fill="none"/><path d="M-4898.52 581.14l-.3-.07-1.18-.1-1.17.1-.3.07v-1.7h2.95zM-4898.52 231.04h-2.95v-1.54h2.95z" stroke="#3a414a" stroke-width=".05" fill="#3a414a"/><path d="M-4100 1087.38V829" stroke="#3a414a" stroke-width="3" fill="none"/><path d="M-4100 1116.38l14.85-14.85-14.85-14.85-14.85 14.85z" stroke="#3a414a" stroke-width="3" fill="#fff"/><path d="M-4098.52 829.04h-2.95v-1.54h2.95z" stroke="#3a414a" stroke-width=".05" fill="#3a414a"/><defs><path d="M52 0l541-1490h220L1361 0h-200l-149-416H398L254 0H52zm404-582h497c-103-290-145-390-251-756-108 377-145 460-246 756" id="F"/><path d="M613 24c-304 0-509-231-509-576 0-350 205-580 509-580 216 0 392 114 453 309l-173 49c-33-115-133-197-280-197-223 0-326 196-326 419 0 220 103 415 326 415 150 0 252-85 285-206l172 49C1010-95 832 24 613 24" id="G"/><path d="M598-1118v154H368v674c0 100 37 144 132 144 23 0 62-6 92-12L629-6c-37 13-88 20-134 20-193 0-307-107-307-290v-688H20v-154h168v-266h180v266h230" id="H"/><path d="M613 24c-304 0-509-231-509-576 0-350 205-580 509-580 305 0 511 230 511 580 0 345-206 576-511 576zm0-161c226 0 329-195 329-415 0-222-103-419-329-419-223 0-326 196-326 419 0 220 103 415 326 415" id="I"/><path d="M158 0v-1118h174v172h12c41-113 157-188 290-188 26 0 70 2 91 3v181c-11-2-60-10-108-10-161 0-279 109-279 260V0H158" id="J"/><g id="a"><path fill-opacity="0" d="M-1-26.8h70.1V7.4H-1z"/><use transform="matrix(0.013020833333333334,0,0,0.013020833333333334,0,0)" xlink:href="#F"/><use transform="matrix(0.013020833333333334,0,0,0.013020833333333334,18.3984375,0)" xlink:href="#G"/><use transform="matrix(0.013020833333333334,0,0,0.013020833333333334,33.6328125,0)" xlink:href="#H"/><use transform="matrix(0.013020833333333334,0,0,0.013020833333333334,42.09635416666667,0)" xlink:href="#I"/><use transform="matrix(0.013020833333333334,0,0,0.013020833333333334,58.0859375,0)" xlink:href="#J"/></g><path d="M537 14c-226 0-379-139-379-422v-710h180v695c0 172 97 275 253 275 160 0 281-109 281-300v-670h181V0H879v-209C806-46 684 14 537 14" id="K"/><path d="M538 24C308 24 148-78 108-271l171-41c32 123 123 178 257 178 156 0 256-77 256-169 0-77-54-128-164-154l-186-44c-203-48-300-148-300-305 0-192 176-326 414-326 230 0 351 112 402 269l-163 42c-31-80-94-158-238-158-133 0-233 69-233 162 0 83 57 129 188 160l169 40c203 48 298 149 298 302 0 196-179 339-441 339" id="L"/><path d="M628 24c-324 0-524-230-524-574 0-343 198-582 503-582 237 0 487 146 487 559v75H286c9 234 145 362 343 362 132 0 231-58 273-172l174 48C1024-91 857 24 628 24zM287-650h624c-17-190-120-322-304-322-192 0-309 151-320 322" id="M"/><path d="M338-670V0H158v-1118h173l1 207c72-158 192-221 342-221 226 0 378 139 378 422V0H872v-695c0-172-96-275-252-275-161 0-282 109-282 300" id="N"/><path d="M471 26C259 26 90-98 90-318c0-256 228-303 435-329 202-27 287-16 287-108 0-139-79-219-234-219-161 0-248 86-283 164l-173-57c86-203 278-265 451-265 150 0 419 46 419 395V0H815v-152h-12C765-73 660 26 471 26zm31-159c199 0 310-134 310-271v-155c-30 35-226 55-295 64-131 17-246 59-246 186 0 116 97 176 231 176" id="O"/><path d="M158 0v-1118h175l1 205c55-151 181-225 313-225 147 0 245 90 285 228 53-141 190-228 352-228 194 0 352 125 352 384V0h-181v-749c0-161-105-225-225-225-151 0-243 103-243 244V0H807v-767c0-124-93-207-219-207-131 0-250 92-250 270V0H158" id="P"/><g id="b"><path fill-opacity="0" d="M-1-26.8h127.5V7.4H-1z"/><use transform="matrix(0.013020833333333334,0,0,0.013020833333333334,0,0)" xlink:href="#K"/><use transform="matrix(0.013020833333333334,0,0,0.013020833333333334,15.768229166666668,0)" xlink:href="#L"/><use transform="matrix(0.013020833333333334,0,0,0.013020833333333334,29.84375,0)" xlink:href="#M"/><use transform="matrix(0.013020833333333334,0,0,0.013020833333333334,45.390625,0)" xlink:href="#J"/><use transform="matrix(0.013020833333333334,0,0,0.013020833333333334,55.84635416666667,0)" xlink:href="#N"/><use transform="matrix(0.013020833333333334,0,0,0.013020833333333334,71.6015625,0)" xlink:href="#O"/><use transform="matrix(0.013020833333333334,0,0,0.013020833333333334,86.57552083333333,0)" xlink:href="#P"/><use transform="matrix(0.013020833333333334,0,0,0.013020833333333334,109.93489583333334,0)" xlink:href="#M"/></g><path d="M158 0v-1118h180V0H158zm91-1301c-68 0-125-53-125-119s57-119 125-119c69 0 126 53 126 119s-57 119-126 119" id="Q"/><path d="M338-1490V0H158v-1490h180" id="R"/><g id="c"><path fill-opacity="0" d="M-1-26.8h68.8V7.4H-1z"/><use transform="matrix(0.013020833333333334,0,0,0.013020833333333334,0,0)" xlink:href="#M"/><use transform="matrix(0.013020833333333334,0,0,0.013020833333333334,15.546875,0)" xlink:href="#P"/><use transform="matrix(0.013020833333333334,0,0,0.013020833333333334,38.90625,0)" xlink:href="#O"/><use transform="matrix(0.013020833333333334,0,0,0.013020833333333334,53.880208333333336,0)" xlink:href="#Q"/><use transform="matrix(0.013020833333333334,0,0,0.013020833333333334,60.33854166666667,0)" xlink:href="#R"/></g><path d="M678-1118v154H420V0H240v-964H20v-154h220v-149c0-194 155-293 318-293 85 0 141 18 168 30l-50 154c-19-6-47-17-97-17-111 0-159 58-159 166v109h258" id="S"/><g id="d"><path fill-opacity="0" d="M-1-26.8h103.7V7.4H-1z"/><use transform="matrix(0.013020833333333334,0,0,0.013020833333333334,0,0)" xlink:href="#S"/><use transform="matrix(0.013020833333333334,0,0,0.013020833333333334,9.869791666666668,0)" xlink:href="#K"/><use transform="matrix(0.013020833333333334,0,0,0.013020833333333334,25.638020833333336,0)" xlink:href="#R"/><use transform="matrix(0.013020833333333334,0,0,0.013020833333333334,32.09635416666667,0)" xlink:href="#N"/><use transform="matrix(0.013020833333333334,0,0,0.013020833333333334,47.85156250000001,0)" xlink:href="#O"/><use transform="matrix(0.013020833333333334,0,0,0.013020833333333334,62.82552083333335,0)" xlink:href="#P"/><use transform="matrix(0.013020833333333334,0,0,0.013020833333333334,86.18489583333334,0)" xlink:href="#M"/></g><path d="M458 0L52-1490h194c108 439 233 855 324 1313 92-459 221-873 331-1313h216c110 438 234 854 330 1307 92-455 216-869 323-1307h196L1558 0h-221l-256-944c-26-95-50-200-73-331-22 122-44 223-73 331L680 0H458" id="T"/><path d="M158 0v-1490h180v865h22l478-493h223L593-638 1096 0H865L456-523 338-412V0H158" id="U"/><path d="M158 418v-1536h174v179h20c37-59 106-193 324-193 279 0 474 222 474 576 0 356-194 580-473 580-213 0-288-135-325-197h-14v591H158zm492-555c209 0 317-186 317-421 0-232-105-413-317-413-206 0-314 166-314 413 0 249 111 421 314 421" id="V"/><g id="e"><path fill-opacity="0" d="M-1-26.8h144.4V7.4H-1z"/><use transform="matrix(0.013020833333333334,0,0,0.013020833333333334,0,0)" xlink:href="#T"/><use transform="matrix(0.013020833333333334,0,0,0.013020833333333334,24.921875,0)" xlink:href="#I"/><use transform="matrix(0.013020833333333334,0,0,0.013020833333333334,40.911458333333336,0)" xlink:href="#J"/><use transform="matrix(0.013020833333333334,0,0,0.013020833333333334,51.3671875,0)" xlink:href="#U"/><use transform="matrix(0.013020833333333334,0,0,0.013020833333333334,66.00260416666667,0)" xlink:href="#L"/><use transform="matrix(0.013020833333333334,0,0,0.013020833333333334,80.078125,0)" xlink:href="#V"/><use transform="matrix(0.013020833333333334,0,0,0.013020833333333334,96.66666666666667,0)" xlink:href="#O"/><use transform="matrix(0.013020833333333334,0,0,0.013020833333333334,111.640625,0)" xlink:href="#G"/><use transform="matrix(0.013020833333333334,0,0,0.013020833333333334,126.875,0)" xlink:href="#M"/></g><g id="f"><path fill-opacity="0" d="M-1-26.8h71.6V7.4H-1z"/><use transform="matrix(0.013020833333333334,0,0,0.013020833333333334,0,0)" xlink:href="#N"/><use transform="matrix(0.013020833333333334,0,0,0.013020833333333334,15.755208333333334,0)" xlink:href="#O"/><use transform="matrix(0.013020833333333334,0,0,0.013020833333333334,30.729166666666668,0)" xlink:href="#P"/><use transform="matrix(0.013020833333333334,0,0,0.013020833333333334,54.08854166666667,0)" xlink:href="#M"/></g><path d="M577 24c-279 0-473-224-473-580 0-354 195-576 474-576 218 0 287 134 324 193h14v-551h180V0H922v-173h-20C865-111 790 24 577 24zm27-161c203 0 314-172 314-421 0-247-108-413-314-413-212 0-317 181-317 413 0 235 108 421 317 421" id="W"/><g id="g"><path fill-opacity="0" d="M-1-26.8h143.4V7.4H-1z"/><use transform="matrix(0.013020833333333334,0,0,0.013020833333333334,0,0)" xlink:href="#W"/><use transform="matrix(0.013020833333333334,0,0,0.013020833333333334,16.328125,0)" xlink:href="#M"/><use transform="matrix(0.013020833333333334,0,0,0.013020833333333334,31.875,0)" xlink:href="#L"/><use transform="matrix(0.013020833333333334,0,0,0.013020833333333334,45.950520833333336,0)" xlink:href="#G"/><use transform="matrix(0.013020833333333334,0,0,0.013020833333333334,61.184895833333336,0)" xlink:href="#J"/><use transform="matrix(0.013020833333333334,0,0,0.013020833333333334,71.640625,0)" xlink:href="#Q"/><use transform="matrix(0.013020833333333334,0,0,0.013020833333333334,78.09895833333333,0)" xlink:href="#V"/><use transform="matrix(0.013020833333333334,0,0,0.013020833333333334,94.42708333333333,0)" xlink:href="#H"/><use transform="matrix(0.013020833333333334,0,0,0.013020833333333334,103.15104166666666,0)" xlink:href="#Q"/><use transform="matrix(0.013020833333333334,0,0,0.013020833333333334,109.60937499999999,0)" xlink:href="#I"/><use transform="matrix(0.013020833333333334,0,0,0.013020833333333334,125.59895833333331,0)" xlink:href="#N"/></g><g id="h"><path fill-opacity="0" d="M-1-26.8h124.6V7.4H-1z"/><use transform="matrix(0.013020833333333334,0,0,0.013020833333333334,0,0)" xlink:href="#G"/><use transform="matrix(0.013020833333333334,0,0,0.013020833333333334,15.234375,0)" xlink:href="#J"/><use transform="matrix(0.013020833333333334,0,0,0.013020833333333334,24.830729166666664,0)" xlink:href="#M"/><use transform="matrix(0.013020833333333334,0,0,0.013020833333333334,40.63802083333333,0)" xlink:href="#O"/><use transform="matrix(0.013020833333333334,0,0,0.013020833333333334,55.61197916666667,0)" xlink:href="#H"/><use transform="matrix(0.013020833333333334,0,0,0.013020833333333334,64.07552083333333,0)" xlink:href="#M"/><use transform="matrix(0.013020833333333334,0,0,0.013020833333333334,79.62239583333333,0)" xlink:href="#W"/><use transform="matrix(0.013020833333333334,0,0,0.013020833333333334,95.95052083333333,0)" xlink:href="#F"/><use transform="matrix(0.013020833333333334,0,0,0.013020833333333334,113.828125,0)" xlink:href="#H"/></g><path d="M98-1322v-168h1126v168H757V0H567v-1322H98" id="X"/><g id="i"><path fill-opacity="0" d="M-1-26.8h79.2V7.4H-1z"/><use transform="matrix(0.013020833333333334,0,0,0.013020833333333334,0,0)" xlink:href="#X"/><use transform="matrix(0.013020833333333334,0,0,0.013020833333333334,17.213541666666668,0)" xlink:href="#Q"/><use transform="matrix(0.013020833333333334,0,0,0.013020833333333334,23.671875,0)" xlink:href="#G"/><use transform="matrix(0.013020833333333334,0,0,0.013020833333333334,38.90625,0)" xlink:href="#U"/><use transform="matrix(0.013020833333333334,0,0,0.013020833333333334,52.94270833333333,0)" xlink:href="#M"/><use transform="matrix(0.013020833333333334,0,0,0.013020833333333334,68.48958333333333,0)" xlink:href="#H"/></g><g id="j"><path fill-opacity="0" d="M-1-26.8h47.9V7.4H-1z"/><use transform="matrix(0.013020833333333334,0,0,0.013020833333333334,0,0)" xlink:href="#H"/><use transform="matrix(0.013020833333333334,0,0,0.013020833333333334,8.723958333333334,0)" xlink:href="#Q"/><use transform="matrix(0.013020833333333334,0,0,0.013020833333333334,15.182291666666668,0)" xlink:href="#H"/><use transform="matrix(0.013020833333333334,0,0,0.013020833333333334,23.90625,0)" xlink:href="#R"/><use transform="matrix(0.013020833333333334,0,0,0.013020833333333334,30.364583333333336,0)" xlink:href="#M"/></g><g id="k"><path fill-opacity="0" d="M-1-26.8h78.5V7.4H-1z"/><use transform="matrix(0.013020833333333334,0,0,0.013020833333333334,0,0)" xlink:href="#L"/><use transform="matrix(0.013020833333333334,0,0,0.013020833333333334,14.075520833333334,0)" xlink:href="#H"/><use transform="matrix(0.013020833333333334,0,0,0.013020833333333334,22.9296875,0)" xlink:href="#O"/><use transform="matrix(0.013020833333333334,0,0,0.013020833333333334,37.903645833333336,0)" xlink:href="#H"/><use transform="matrix(0.013020833333333334,0,0,0.013020833333333334,46.62760416666667,0)" xlink:href="#K"/><use transform="matrix(0.013020833333333334,0,0,0.013020833333333334,62.39583333333335,0)" xlink:href="#L"/></g><path d="M140 405l46-156c120 36 205 19 263-150l32-93L54-1118h197c107 313 237 620 324 950 87-331 219-637 326-950h196L606 167c-68 178-176 259-334 259-64 0-113-12-132-21" id="Y"/><g id="l"><path fill-opacity="0" d="M-1-26.8h92.4V7.4H-1z"/><use transform="matrix(0.013020833333333334,0,0,0.013020833333333334,0,0)" xlink:href="#V"/><use transform="matrix(0.013020833333333334,0,0,0.013020833333333334,16.328125,0)" xlink:href="#J"/><use transform="matrix(0.013020833333333334,0,0,0.013020833333333334,26.783854166666668,0)" xlink:href="#Q"/><use transform="matrix(0.013020833333333334,0,0,0.013020833333333334,33.2421875,0)" xlink:href="#I"/><use transform="matrix(0.013020833333333334,0,0,0.013020833333333334,49.231770833333336,0)" xlink:href="#J"/><use transform="matrix(0.013020833333333334,0,0,0.013020833333333334,59.6875,0)" xlink:href="#Q"/><use transform="matrix(0.013020833333333334,0,0,0.013020833333333334,66.14583333333333,0)" xlink:href="#H"/><use transform="matrix(0.013020833333333334,0,0,0.013020833333333334,75.39062499999999,0)" xlink:href="#Y"/></g><path d="M409 0L70-1118h191c89 329 165 560 243 925 75-353 154-601 240-925h192c85 325 161 564 235 922 77-354 157-598 244-922h191L1267 0h-179c-86-307-176-590-250-913C763-588 675-308 588 0H409" id="Z"/><g id="m"><path fill-opacity="0" d="M-1-26.8h118.4V7.4H-1z"/><use transform="matrix(0.013020833333333334,0,0,0.013020833333333334,0,0)" xlink:href="#Z"/><use transform="matrix(0.013020833333333334,0,0,0.013020833333333334,21.341145833333336,0)" xlink:href="#I"/><use transform="matrix(0.013020833333333334,0,0,0.013020833333333334,37.33072916666667,0)" xlink:href="#J"/><use transform="matrix(0.013020833333333334,0,0,0.013020833333333334,47.786458333333336,0)" xlink:href="#U"/><use transform="matrix(0.013020833333333334,0,0,0.013020833333333334,62.421875,0)" xlink:href="#R"/><use transform="matrix(0.013020833333333334,0,0,0.013020833333333334,68.88020833333333,0)" xlink:href="#I"/><use transform="matrix(0.013020833333333334,0,0,0.013020833333333334,85.13020833333333,0)" xlink:href="#O"/><use transform="matrix(0.013020833333333334,0,0,0.013020833333333334,100.10416666666666,0)" xlink:href="#W"/></g><g id="n"><path fill-opacity="0" d="M-1-26.8h85.7V7.4H-1z"/><use transform="matrix(0.013020833333333334,0,0,0.013020833333333334,0,0)" xlink:href="#L"/><use transform="matrix(0.013020833333333334,0,0,0.013020833333333334,14.075520833333334,0)" xlink:href="#H"/><use transform="matrix(0.013020833333333334,0,0,0.013020833333333334,22.9296875,0)" xlink:href="#O"/><use transform="matrix(0.013020833333333334,0,0,0.013020833333333334,37.903645833333336,0)" xlink:href="#J"/><use transform="matrix(0.013020833333333334,0,0,0.013020833333333334,48.359375,0)" xlink:href="#H"/><use transform="matrix(0.013020833333333334,0,0,0.013020833333333334,57.083333333333336,0)" xlink:href="#F"/><use transform="matrix(0.013020833333333334,0,0,0.013020833333333334,74.9609375,0)" xlink:href="#H"/></g><path d="M645 0H180v-1490h484c435 0 692 280 692 742 0 466-257 748-711 748zM370-168h263c363 0 539-218 539-580 0-358-176-574-521-574H370v1154" id="aa"/><g id="o"><path fill-opacity="0" d="M-1-26.8h107.9V7.4H-1z"/><use transform="matrix(0.013020833333333334,0,0,0.013020833333333334,0,0)" xlink:href="#W"/><use transform="matrix(0.013020833333333334,0,0,0.013020833333333334,16.328125,0)" xlink:href="#K"/><use transform="matrix(0.013020833333333334,0,0,0.013020833333333334,32.09635416666667,0)" xlink:href="#M"/><use transform="matrix(0.013020833333333334,0,0,0.013020833333333334,47.64322916666667,0)" xlink:href="#aa"/><use transform="matrix(0.013020833333333334,0,0,0.013020833333333334,66.88802083333334,0)" xlink:href="#O"/><use transform="matrix(0.013020833333333334,0,0,0.013020833333333334,81.86197916666667,0)" xlink:href="#H"/><use transform="matrix(0.013020833333333334,0,0,0.013020833333333334,90.32552083333333,0)" xlink:href="#M"/></g><path d="M370-1490V0H180v-1490h190" id="ab"/><g id="p"><path fill-opacity="0" d="M-1-26.8h164.3V7.4H-1z"/><use transform="matrix(0.013020833333333334,0,0,0.013020833333333334,0,0)" xlink:href="#Z"/><use transform="matrix(0.013020833333333334,0,0,0.013020833333333334,21.341145833333336,0)" xlink:href="#I"/><use transform="matrix(0.013020833333333334,0,0,0.013020833333333334,37.33072916666667,0)" xlink:href="#J"/><use transform="matrix(0.013020833333333334,0,0,0.013020833333333334,47.786458333333336,0)" xlink:href="#U"/><use transform="matrix(0.013020833333333334,0,0,0.013020833333333334,62.421875,0)" xlink:href="#L"/><use transform="matrix(0.013020833333333334,0,0,0.013020833333333334,76.49739583333333,0)" xlink:href="#V"/><use transform="matrix(0.013020833333333334,0,0,0.013020833333333334,93.0859375,0)" xlink:href="#O"/><use transform="matrix(0.013020833333333334,0,0,0.013020833333333334,108.05989583333334,0)" xlink:href="#G"/><use transform="matrix(0.013020833333333334,0,0,0.013020833333333334,123.29427083333334,0)" xlink:href="#M"/><use transform="matrix(0.013020833333333334,0,0,0.013020833333333334,138.84114583333331,0)" xlink:href="#ab"/><use transform="matrix(0.013020833333333334,0,0,0.013020833333333334,146.00260416666666,0)" xlink:href="#W"/></g><path d="M180 0v-1490h908v168H370v486h669v168H370v500h727V0H180" id="ac"/><g id="q"><path fill-opacity="0" d="M-1-26.8h56V7.4H-1z"/><use transform="matrix(0.013020833333333334,0,0,0.013020833333333334,0,0)" xlink:href="#ac"/><use transform="matrix(0.013020833333333334,0,0,0.013020833333333334,16.028645833333336,0)" xlink:href="#V"/><use transform="matrix(0.013020833333333334,0,0,0.013020833333333334,32.356770833333336,0)" xlink:href="#Q"/><use transform="matrix(0.013020833333333334,0,0,0.013020833333333334,38.81510416666667,0)" xlink:href="#G"/></g><g id="r"><path fill-opacity="0" d="M-1-26.8h80.7V7.4H-1z"/><use transform="matrix(0.013020833333333334,0,0,0.013020833333333334,0,0)" xlink:href="#I"/><use transform="matrix(0.013020833333333334,0,0,0.013020833333333334,15.5078125,0)" xlink:href="#Z"/><use transform="matrix(0.013020833333333334,0,0,0.013020833333333334,37.33072916666667,0)" xlink:href="#N"/><use transform="matrix(0.013020833333333334,0,0,0.013020833333333334,53.08593750000001,0)" xlink:href="#M"/><use transform="matrix(0.013020833333333334,0,0,0.013020833333333334,68.6328125,0)" xlink:href="#J"/></g><path d="M611 442c-248 0-391-105-460-228l146-94c47 65 117 165 314 165 178 0 307-82 307-266v-224h-17C863-141 792-18 576-18c-268 0-472-195-472-546 0-346 197-568 476-568 216 0 288 133 326 193h17v-179h175V29c0 289-215 413-487 413zm-5-620c203 0 314-146 314-390 0-237-108-403-314-403-213 0-319 180-319 403 0 230 109 390 319 390" id="ad"/><g id="s"><path fill-opacity="0" d="M-1-26.8h146.7V7.4H-1z"/><use transform="matrix(0.013020833333333334,0,0,0.013020833333333334,0,0)" xlink:href="#O"/><use transform="matrix(0.013020833333333334,0,0,0.013020833333333334,14.973958333333334,0)" xlink:href="#L"/><use transform="matrix(0.013020833333333334,0,0,0.013020833333333334,29.049479166666668,0)" xlink:href="#L"/><use transform="matrix(0.013020833333333334,0,0,0.013020833333333334,43.125,0)" xlink:href="#Q"/><use transform="matrix(0.013020833333333334,0,0,0.013020833333333334,49.583333333333336,0)" xlink:href="#ad"/><use transform="matrix(0.013020833333333334,0,0,0.013020833333333334,65.9375,0)" xlink:href="#N"/><use transform="matrix(0.013020833333333334,0,0,0.013020833333333334,81.69270833333333,0)" xlink:href="#M"/><use transform="matrix(0.013020833333333334,0,0,0.013020833333333334,97.23958333333333,0)" xlink:href="#W"/><use transform="matrix(0.013020833333333334,0,0,0.013020833333333334,113.56770833333334,0)" xlink:href="#X"/><use transform="matrix(0.013020833333333334,0,0,0.013020833333333334,128.69791666666666,0)" xlink:href="#I"/></g><path d="M783 20c-382 0-661-292-661-764 0-473 279-766 661-766 302 0 548 182 601 489h-190c-42-204-217-313-411-313-268 0-476 208-476 590 0 381 209 588 476 588 195 0 369-110 411-313h190c-52 303-296 489-601 489" id="ae"/><g id="t"><path fill-opacity="0" d="M-1-26.8h178.3V7.4H-1z"/><use transform="matrix(0.013020833333333334,0,0,0.013020833333333334,0,0)" xlink:href="#ac"/><use transform="matrix(0.013020833333333334,0,0,0.013020833333333334,16.028645833333336,0)" xlink:href="#V"/><use transform="matrix(0.013020833333333334,0,0,0.013020833333333334,32.356770833333336,0)" xlink:href="#Q"/><use transform="matrix(0.013020833333333334,0,0,0.013020833333333334,38.81510416666667,0)" xlink:href="#G"/><use transform="matrix(0.013020833333333334,0,0,0.013020833333333334,54.04947916666667,0)" xlink:href="#ae"/><use transform="matrix(0.013020833333333334,0,0,0.013020833333333334,73.52864583333334,0)" xlink:href="#I"/><use transform="matrix(0.013020833333333334,0,0,0.013020833333333334,89.51822916666667,0)" xlink:href="#P"/><use transform="matrix(0.013020833333333334,0,0,0.013020833333333334,112.87760416666667,0)" xlink:href="#P"/><use transform="matrix(0.013020833333333334,0,0,0.013020833333333334,136.23697916666669,0)" xlink:href="#M"/><use transform="matrix(0.013020833333333334,0,0,0.013020833333333334,151.78385416666669,0)" xlink:href="#N"/><use transform="matrix(0.013020833333333334,0,0,0.013020833333333334,167.53906250000003,0)" xlink:href="#H"/></g><g id="u"><path fill-opacity="0" d="M-1-26.8h97.5V7.4H-1z"/><use transform="matrix(0.013020833333333334,0,0,0.013020833333333334,0,0)" xlink:href="#G"/><use transform="matrix(0.013020833333333334,0,0,0.013020833333333334,15.234375,0)" xlink:href="#I"/><use transform="matrix(0.013020833333333334,0,0,0.013020833333333334,31.223958333333336,0)" xlink:href="#N"/><use transform="matrix(0.013020833333333334,0,0,0.013020833333333334,46.97916666666667,0)" xlink:href="#H"/><use transform="matrix(0.013020833333333334,0,0,0.013020833333333334,55.44270833333335,0)" xlink:href="#M"/><use transform="matrix(0.013020833333333334,0,0,0.013020833333333334,70.98958333333334,0)" xlink:href="#N"/><use transform="matrix(0.013020833333333334,0,0,0.013020833333333334,86.74479166666667,0)" xlink:href="#H"/></g><path d="M295 13c-75 0-135-60-135-135s60-135 135-135 135 60 135 135S370 13 295 13zm0-809c-75 0-135-60-135-135s60-135 135-135 135 60 135 135-60 135-135 135" id="af"/><g id="v"><path fill-opacity="0" d="M-1-26.8h98.4V7.4H-1z"/><use transform="matrix(0.013020833333333334,0,0,0.013020833333333334,0,0)" xlink:href="#V"/><use transform="matrix(0.013020833333333334,0,0,0.013020833333333334,16.588541666666668,0)" xlink:href="#O"/><use transform="matrix(0.013020833333333334,0,0,0.013020833333333334,31.5625,0)" xlink:href="#J"/><use transform="matrix(0.013020833333333334,0,0,0.013020833333333334,41.15885416666667,0)" xlink:href="#M"/><use transform="matrix(0.013020833333333334,0,0,0.013020833333333334,56.70572916666667,0)" xlink:href="#N"/><use transform="matrix(0.013020833333333334,0,0,0.013020833333333334,72.4609375,0)" xlink:href="#H"/><use transform="matrix(0.013020833333333334,0,0,0.013020833333333334,81.18489583333333,0)" xlink:href="#af"/></g><g id="w"><path fill-opacity="0" d="M-1-26.8h178.3V7.4H-1z"/><use transform="matrix(0.013020833333333334,0,0,0.013020833333333334,0,0)" xlink:href="#ac"/><use transform="matrix(0.013020833333333334,0,0,0.013020833333333334,16.028645833333336,0)" xlink:href="#V"/><use transform="matrix(0.013020833333333334,0,0,0.013020833333333334,32.356770833333336,0)" xlink:href="#Q"/><use transform="matrix(0.013020833333333334,0,0,0.013020833333333334,38.81510416666667,0)" xlink:href="#G"/><use transform="matrix(0.013020833333333334,0,0,0.013020833333333334,54.04947916666667,0)" xlink:href="#ae"/><use transform="matrix(0.013020833333333334,0,0,0.013020833333333334,73.52864583333334,0)" xlink:href="#I"/><use transform="matrix(0.013020833333333334,0,0,0.013020833333333334,89.51822916666667,0)" xlink:href="#P"/><use transform="matrix(0.013020833333333334,0,0,0.013020833333333334,112.87760416666667,0)" xlink:href="#P"/><use transform="matrix(0.013020833333333334,0,0,0.013020833333333334,136.23697916666669,0)" xlink:href="#M"/><use transform="matrix(0.013020833333333334,0,0,0.013020833333333334,151.78385416666669,0)" xlink:href="#N"/><use transform="matrix(0.013020833333333334,0,0,0.013020833333333334,167.53906250000003,0)" xlink:href="#H"/></g><g id="x"><path fill-opacity="0" d="M-1-26.8h201.4V7.4H-1z"/><use transform="matrix(0.013020833333333334,0,0,0.013020833333333334,0,0)" xlink:href="#X"/><use transform="matrix(0.013020833333333334,0,0,0.013020833333333334,17.213541666666668,0)" xlink:href="#Q"/><use transform="matrix(0.013020833333333334,0,0,0.013020833333333334,23.671875,0)" xlink:href="#G"/><use transform="matrix(0.013020833333333334,0,0,0.013020833333333334,38.90625,0)" xlink:href="#U"/><use transform="matrix(0.013020833333333334,0,0,0.013020833333333334,52.94270833333333,0)" xlink:href="#M"/><use transform="matrix(0.013020833333333334,0,0,0.013020833333333334,68.48958333333333,0)" xlink:href="#H"/><use transform="matrix(0.013020833333333334,0,0,0.013020833333333334,77.21354166666666,0)" xlink:href="#ae"/><use transform="matrix(0.013020833333333334,0,0,0.013020833333333334,96.69270833333333,0)" xlink:href="#I"/><use transform="matrix(0.013020833333333334,0,0,0.013020833333333334,112.68229166666664,0)" xlink:href="#P"/><use transform="matrix(0.013020833333333334,0,0,0.013020833333333334,136.04166666666666,0)" xlink:href="#P"/><use transform="matrix(0.013020833333333334,0,0,0.013020833333333334,159.40104166666666,0)" xlink:href="#M"/><use transform="matrix(0.013020833333333334,0,0,0.013020833333333334,174.94791666666666,0)" xlink:href="#N"/><use transform="matrix(0.013020833333333334,0,0,0.013020833333333334,190.703125,0)" xlink:href="#H"/></g><g id="y"><path fill-opacity="0" d="M-1-26.8h201.4V7.4H-1z"/><use transform="matrix(0.013020833333333334,0,0,0.013020833333333334,0,0)" xlink:href="#X"/><use transform="matrix(0.013020833333333334,0,0,0.013020833333333334,17.213541666666668,0)" xlink:href="#Q"/><use transform="matrix(0.013020833333333334,0,0,0.013020833333333334,23.671875,0)" xlink:href="#G"/><use transform="matrix(0.013020833333333334,0,0,0.013020833333333334,38.90625,0)" xlink:href="#U"/><use transform="matrix(0.013020833333333334,0,0,0.013020833333333334,52.94270833333333,0)" xlink:href="#M"/><use transform="matrix(0.013020833333333334,0,0,0.013020833333333334,68.48958333333333,0)" xlink:href="#H"/><use transform="matrix(0.013020833333333334,0,0,0.013020833333333334,77.21354166666666,0)" xlink:href="#ae"/><use transform="matrix(0.013020833333333334,0,0,0.013020833333333334,96.69270833333333,0)" xlink:href="#I"/><use transform="matrix(0.013020833333333334,0,0,0.013020833333333334,112.68229166666664,0)" xlink:href="#P"/><use transform="matrix(0.013020833333333334,0,0,0.013020833333333334,136.04166666666666,0)" xlink:href="#P"/><use transform="matrix(0.013020833333333334,0,0,0.013020833333333334,159.40104166666666,0)" xlink:href="#M"/><use transform="matrix(0.013020833333333334,0,0,0.013020833333333334,174.94791666666666,0)" xlink:href="#N"/><use transform="matrix(0.013020833333333334,0,0,0.013020833333333334,190.703125,0)" xlink:href="#H"/></g><path d="M653-1490V0H466v-1314h-10L96-1047v-204l324-239h233" id="ag"/><g id="z"><path fill-opacity="0" d="M-1-26.8h12.8V7.4H-1z"/><use transform="matrix(0.013020833333333334,0,0,0.013020833333333334,0,0)" xlink:href="#ag"/></g><g id="A"><path fill-opacity="0" d="M-1-26.8h20.3V7.4H-1z"/><use transform="matrix(0.013020833333333334,0,0,0.013020833333333334,0,0)" xlink:href="#ag"/></g><path d="M295 13c-75 0-135-60-135-135s60-135 135-135 135 60 135 135S370 13 295 13" id="ah"/><g id="B"><path fill-opacity="0" d="M-1-26.8h24.9V7.4H-1z"/><use transform="matrix(0.013020833333333334,0,0,0.013020833333333334,0,0)" xlink:href="#ah"/><use transform="matrix(0.013020833333333334,0,0,0.013020833333333334,7.682291666666667,0)" xlink:href="#ah"/></g><path d="M441-652l13-317-268 171-72-126 282-146-282-146 72-128 268 171-13-317h144l-12 317 267-171 72 128-282 146 282 146-72 126-267-171 12 317H441" id="ai"/><g id="C"><path fill-opacity="0" d="M-1-26.8h15.4V7.4H-1z"/><use transform="matrix(0.013020833333333334,0,0,0.013020833333333334,0,0)" xlink:href="#ai"/></g><path d="M180 0v-1490h270l367 940c28 72 75 218 110 339 35-117 81-264 110-339l362-940h271V0h-187c2-448-5-837 7-1287-157 497-311 829-483 1287H842C666-458 514-784 354-1284c12 438 5 843 7 1284H180" id="aj"/><path d="M677 24c-213 0-288-135-325-197h-20V0H158v-1490h180v551h14c37-59 106-193 324-193 279 0 474 222 474 576 0 356-194 580-473 580zm-27-161c209 0 317-186 317-421 0-232-105-413-317-413-206 0-314 166-314 413 0 249 111 421 314 421" id="ak"/><g id="D"><path fill-opacity="0" d="M-1-26.8h106.9V7.4H-1z"/><use transform="matrix(0.013020833333333334,0,0,0.013020833333333334,0,0)" xlink:href="#aj"/><use transform="matrix(0.013020833333333334,0,0,0.013020833333333334,24.088541666666668,0)" xlink:href="#M"/><use transform="matrix(0.013020833333333334,0,0,0.013020833333333334,39.63541666666667,0)" xlink:href="#P"/><use transform="matrix(0.013020833333333334,0,0,0.013020833333333334,62.99479166666667,0)" xlink:href="#ak"/><use transform="matrix(0.013020833333333334,0,0,0.013020833333333334,79.32291666666667,0)" xlink:href="#M"/><use transform="matrix(0.013020833333333334,0,0,0.013020833333333334,94.86979166666667,0)" xlink:href="#J"/></g><path d="M180 0v-1490h224l606 953c40 63 108 177 176 312-27-437-7-821-13-1265h190V0h-226C860-448 622-778 356-1262c27 476 11 792 15 1262H180" id="al"/><g id="E"><path fill-opacity="0" d="M-1-26.8h29.3V7.4H-1z"/><use transform="matrix(0.013020833333333334,0,0,0.013020833333333334,0,0)" xlink:href="#ab"/><use transform="matrix(0.013020833333333334,0,0,0.013020833333333334,7.161458333333334,0)" xlink:href="#al"/></g></defs></g></svg>